<svg xmlns="http://www.w3.org/2000/svg" width="288.29" height="63.957" viewBox="0 0 288.29 63.957">
  <g id="Logo" transform="translate(-91.211 -33.503)">
    <g id="Vector_Smart_Object" data-name="Vector Smart Object" transform="translate(161.501 -15.54)">
      <path id="Path_5" data-name="Path 5" d="M37.513,94.311l1.954,1.765a22.91,22.91,0,0,1-15.942,6.046,22.833,22.833,0,0,1-16.7-6.98A23.542,23.542,0,0,1,7,61.808a22.809,22.809,0,0,1,16.77-6.818A22.91,22.91,0,0,1,39.652,61.2l-1.973,1.774A20.368,20.368,0,0,0,23.76,57.637,20.263,20.263,0,0,0,8.886,63.688,20.893,20.893,0,0,0,8.729,93.3,20.262,20.262,0,0,0,23.539,99.5a20.373,20.373,0,0,0,13.974-5.192" fill="#fff"/>
      <rect id="Rectangle_1" data-name="Rectangle 1" width="46.039" height="2.599" transform="matrix(0.005, -1, 1, 0.005, 41.926, 101.671)" fill="#fff"/>
      <path id="Path_6" data-name="Path 6" d="M62.74,70.963A15.807,15.807,0,0,1,73.814,98.012a15.881,15.881,0,0,1-22.421-.118A15.812,15.812,0,0,1,62.74,70.963m-9.3,6.54a13.042,13.042,0,0,0,9.152,22.32,12.677,12.677,0,0,0,9.289-3.764,13.01,13.01,0,0,0,.1-18.458,13.14,13.14,0,0,0-18.538-.1" fill="#fff"/>
      <path id="Path_7" data-name="Path 7" d="M92.321,102.338a11.454,11.454,0,0,1-8.444-3.181,11.007,11.007,0,0,1-3.191-7.93l.092-17.609,2.6.013-.092,17.379a8.2,8.2,0,0,0,2.6,6.143,8.809,8.809,0,0,0,6.426,2.594,8.578,8.578,0,0,0,6.208-2.514,8.269,8.269,0,0,0,2.645-6.13l.092-17.379,2.6.013-.093,17.609a10.9,10.9,0,0,1-11.435,10.99" fill="#fff"/>
      <path id="Path_8" data-name="Path 8" d="M138.239,102.176l-2.6-.013.03-5.755a19.47,19.47,0,0,1-1.655,1.919A15.837,15.837,0,1,1,111.7,75.852a15.9,15.9,0,0,1,22.436.118,19.538,19.538,0,0,1,1.635,1.936l.115-21.781,2.6.014Zm-2.533-12.444.027-5.123a12.9,12.9,0,1,0-.027,5.123" fill="#fff"/>
      <path id="Path_9" data-name="Path 9" d="M142.321,73.941l2.6.014-.021,3.971a16.6,16.6,0,0,1,1.656-1.891,15.832,15.832,0,1,1,22.3,22.474,15.882,15.882,0,0,1-22.422-.117,16.446,16.446,0,0,1-1.635-1.908L144.714,113l-2.6-.014Zm2.543,10.573-.028,5.41a12.962,12.962,0,1,0,.028-5.41" fill="#fff"/>
      <path id="Path_10" data-name="Path 10" d="M176.11,74.118l2.6.014-.027,5.15a16.526,16.526,0,0,1,1.889-2.206q3.452-3.406,7.064-3.56l-.015,2.82q-2.455.1-5.1,2.706a12.419,12.419,0,0,0-3.886,8.756l-.077,14.588-2.6-.013Z" fill="#fff"/>
      <path id="Path_11" data-name="Path 11" d="M202.231,71.694a15.808,15.808,0,0,1,11.076,27.049A15.832,15.832,0,1,1,191,76.268a15.3,15.3,0,0,1,11.229-4.574m-9.3,6.54a13.14,13.14,0,1,0,9.289-3.778,12.57,12.57,0,0,0-9.289,3.778" fill="#fff"/>
      <path id="Path_12" data-name="Path 12" d="M13.219,105.2c.075,0,.111.041.111.121l-.035,6.616a.165.165,0,0,1-.038.125.2.2,0,0,1-.131.032l-.588,0a.165.165,0,0,1-.112-.029.142.142,0,0,1-.027-.1l.035-6.635c0-.087.038-.13.112-.13Z" fill="#fff"/>
      <path id="Path_13" data-name="Path 13" d="M14.626,105.308c0-.069.038-.1.113-.1l5.017.026c.075,0,.111.035.111.1l0,.483a.081.081,0,0,1-.029.074.154.154,0,0,1-.084.019l-1.894-.011a.13.13,0,0,0-.079.018.1.1,0,0,0-.023.074l-.031,6c0,.08-.038.12-.113.12l-.671,0c-.075,0-.112-.041-.111-.121L16.861,106a.126.126,0,0,0-.018-.084.11.11,0,0,0-.075-.018l-2.033-.011a.151.151,0,0,1-.084-.019.085.085,0,0,1-.027-.075Z" fill="#fff"/>
      <path id="Path_14" data-name="Path 14" d="M25.311,105.847a1.769,1.769,0,0,0-1.1.3A1.015,1.015,0,0,0,23.8,107q0,.725.993,1.064l1.35.454a2.5,2.5,0,0,1,1.185.726,1.823,1.823,0,0,1-.307,2.5,2.894,2.894,0,0,1-1.811.5,3.45,3.45,0,0,1-1.477-.305,2.513,2.513,0,0,1-1.026-.869.328.328,0,0,1-.037-.093c0-.043.032-.087.094-.13l.337-.23a.268.268,0,0,1,.131-.055.133.133,0,0,1,.1.056,2.7,2.7,0,0,0,.789.729,2.209,2.209,0,0,0,1.053.219A2.248,2.248,0,0,0,26.4,111.3a.956.956,0,0,0,.438-.862.9.9,0,0,0-.225-.619,2.127,2.127,0,0,0-.822-.482l-1.416-.491a2.183,2.183,0,0,1-1.082-.727,1.688,1.688,0,0,1-.344-1.037,1.774,1.774,0,0,1,.3-1.011,1.9,1.9,0,0,1,.833-.669,3.027,3.027,0,0,1,1.237-.231,3.065,3.065,0,0,1,1.235.248,2.714,2.714,0,0,1,.943.683.138.138,0,0,1,.046.094.1.1,0,0,1-.047.083l-.43.332a.079.079,0,0,1-.057.027c-.019,0-.055-.028-.111-.084a1.981,1.981,0,0,0-1.582-.706" fill="#fff"/>
      <path id="Path_15" data-name="Path 15" d="M29.16,105.31a.112.112,0,0,1,.089-.027l4.187.021c.062,0,.093.034.093.1l0,.473c0,.075-.042.112-.122.111l-3.254-.017a.141.141,0,0,0-.1.023.124.124,0,0,0-.024.088l-.012,2.174a.091.091,0,0,0,.1.1l2.416.012a.09.09,0,0,1,.1.1l0,.493c0,.056-.034.083-.1.083l-2.416-.012a.091.091,0,0,0-.1.1L30,111.4a.108.108,0,0,0,.018.074.111.111,0,0,0,.075.02l3.422.018a.134.134,0,0,1,.079.019.092.092,0,0,1,.023.074l0,.493a.09.09,0,0,1-.1.1l-4.28-.022a.148.148,0,0,1-.1-.029.144.144,0,0,1-.027-.1l.035-6.635a.162.162,0,0,1,.024-.1" fill="#fff"/>
      <path id="Path_16" data-name="Path 16" d="M39.909,112.122a.1.1,0,0,1-.112.111l-.68,0a.155.155,0,0,1-.148-.113l-1.189-2.933a.193.193,0,0,0-.073-.084.3.3,0,0,0-.15-.028l-1.576-.009c-.075,0-.112.034-.112.1l-.015,2.9a.166.166,0,0,1-.033.116.183.183,0,0,1-.126.032l-.606,0a.143.143,0,0,1-.1-.028.126.126,0,0,1-.027-.093l.035-6.644a.164.164,0,0,1,.023-.1.113.113,0,0,1,.089-.027l2.6.014a2.809,2.809,0,0,1,1.713.464,1.56,1.56,0,0,1,.6,1.332,1.727,1.727,0,0,1-.4,1.182,2.023,2.023,0,0,1-.968.613.059.059,0,0,0-.046.037.06.06,0,0,0,.009.055l1.289,3.046a.156.156,0,0,1,.008.065m-1.237-3.984a1.08,1.08,0,0,0,.415-.936,1.124,1.124,0,0,0-.358-.913,1.629,1.629,0,0,0-1.072-.312l-1.641-.009c-.087,0-.131.033-.131.1l-.012,2.23c0,.08.027.12.083.121l1.473.008a2.118,2.118,0,0,0,1.242-.291" fill="#fff"/>
      <path id="Path_17" data-name="Path 17" d="M46.617,105.415a.1.1,0,0,1,0,.089l-2.394,6.613a.22.22,0,0,1-.075.106.227.227,0,0,1-.131.032l-.634,0c-.124,0-.2-.044-.223-.132l-2.278-6.637a.108.108,0,0,1-.009-.047c0-.062.038-.093.113-.092l.643,0a.161.161,0,0,1,.158.112L43.7,111.1c.018.056.04.084.065.084s.05-.031.075-.093l2-5.62a.129.129,0,0,1,.14-.1l.55,0a.092.092,0,0,1,.088.042" fill="#fff"/>
      <path id="Path_18" data-name="Path 18" d="M48.739,105.385c.075,0,.111.041.111.121l-.035,6.616a.168.168,0,0,1-.038.126.2.2,0,0,1-.131.032l-.588,0a.161.161,0,0,1-.112-.029.142.142,0,0,1-.027-.1l.035-6.635c0-.087.038-.13.112-.13Z" fill="#fff"/>
      <path id="Path_19" data-name="Path 19" d="M54.451,105.582a2.631,2.631,0,0,1,.915.7,1.891,1.891,0,0,1,.433.95l.009.065a.067.067,0,0,1-.023.055.081.081,0,0,1-.051.019l-.7.052h-.018a.057.057,0,0,1-.047-.023.168.168,0,0,1-.027-.071,1.722,1.722,0,0,0-.573-.969,1.617,1.617,0,0,0-1.061-.369,1.73,1.73,0,0,0-1.5.713,3.678,3.678,0,0,0-.528,2.149,3.573,3.573,0,0,0,.506,2.117,1.784,1.784,0,0,0,1.54.719,1.842,1.842,0,0,0,1.107-.314,2.187,2.187,0,0,0,.718-1.006c.013-.043.05-.055.112-.036l.549.134c.044.012.058.056.046.13a2.475,2.475,0,0,1-.49.875,2.628,2.628,0,0,1-.88.669,2.7,2.7,0,0,1-1.2.253,2.857,2.857,0,0,1-1.583-.435,2.737,2.737,0,0,1-1.01-1.232,5.272,5.272,0,0,1,.016-3.787,2.693,2.693,0,0,1,1.014-1.212,2.827,2.827,0,0,1,1.564-.415,2.717,2.717,0,0,1,1.169.266" fill="#fff"/>
      <path id="Path_20" data-name="Path 20" d="M57.276,105.457a.114.114,0,0,1,.089-.027l4.187.022c.062,0,.093.035.093.1l0,.474c0,.074-.042.111-.122.111l-3.254-.018a.143.143,0,0,0-.1.023.121.121,0,0,0-.024.088l-.012,2.174a.091.091,0,0,0,.1.1l2.416.013a.09.09,0,0,1,.1.1l0,.492c0,.056-.034.083-.1.083l-2.416-.013a.091.091,0,0,0-.1.1l-.011,2.258a.108.108,0,0,0,.018.074.1.1,0,0,0,.075.02l3.422.018a.131.131,0,0,1,.079.018.094.094,0,0,1,.023.075l0,.492a.09.09,0,0,1-.1.1l-4.28-.023a.107.107,0,0,1-.13-.131l.035-6.635a.162.162,0,0,1,.024-.1" fill="#fff"/>
      <path id="Path_21" data-name="Path 21" d="M65.261,106.056a1.769,1.769,0,0,0-1.1.3,1.015,1.015,0,0,0-.406.853q0,.725.993,1.064l1.35.454a2.5,2.5,0,0,1,1.185.726,1.823,1.823,0,0,1-.307,2.5,2.889,2.889,0,0,1-1.811.5,3.45,3.45,0,0,1-1.477-.305,2.513,2.513,0,0,1-1.026-.869.328.328,0,0,1-.037-.093c0-.043.032-.087.094-.13l.337-.231a.268.268,0,0,1,.131-.055.135.135,0,0,1,.1.056,2.714,2.714,0,0,0,.789.73,2.209,2.209,0,0,0,1.053.218,2.24,2.24,0,0,0,1.218-.272.956.956,0,0,0,.438-.862.894.894,0,0,0-.225-.619,2.116,2.116,0,0,0-.822-.483l-1.416-.491a2.182,2.182,0,0,1-1.082-.726,1.692,1.692,0,0,1-.344-1.038,1.776,1.776,0,0,1,.3-1.011,1.9,1.9,0,0,1,.833-.669,3.027,3.027,0,0,1,1.237-.231,3.074,3.074,0,0,1,1.235.248,2.705,2.705,0,0,1,.943.684.135.135,0,0,1,.046.093.106.106,0,0,1-.047.084l-.43.332a.082.082,0,0,1-.057.028c-.019,0-.055-.028-.111-.084a1.984,1.984,0,0,0-1.582-.706" fill="#fff"/>
      <path id="Path_22" data-name="Path 22" d="M70.581,112.352a.122.122,0,0,1,0-.116l2.45-6.594a.22.22,0,0,1,.066-.1.207.207,0,0,1,.121-.027l.728,0a.192.192,0,0,1,.213.141l2.353,6.61.009.047q0,.112-.1.111l-.662,0a.147.147,0,0,1-.15-.093l-.633-1.807a.23.23,0,0,0-.038-.056.1.1,0,0,0-.074-.019l-2.714-.014a.108.108,0,0,0-.112.074l-.672,1.809a.129.129,0,0,1-.14.082l-.559,0a.094.094,0,0,1-.084-.043m4.042-2.613c.068,0,.094-.04.076-.12l-1.1-3.063c-.018-.056-.04-.084-.064-.084s-.047.027-.066.083l-1.154,3.071-.019.056c0,.031.024.046.074.047Z" fill="#fff"/>
      <path id="Path_23" data-name="Path 23" d="M83.02,105.565a.106.106,0,0,1,.079.023.124.124,0,0,1,.023.088l-.036,6.672c0,.075-.04.112-.121.111l-.457,0a.379.379,0,0,1-.116-.015.175.175,0,0,1-.079-.061L78.74,107.15c-.025-.043-.048-.062-.069-.057s-.032.028-.033.065l-.027,5.158c0,.08-.044.12-.131.12l-.522,0a.107.107,0,0,1-.121-.121l.035-6.644a.163.163,0,0,1,.024-.1.126.126,0,0,1,.1-.027l.531,0a.265.265,0,0,1,.111.019.314.314,0,0,1,.084.075l3.47,5.12c.031.038.059.057.084.057s.056-.028.057-.084l.027-5.055a.1.1,0,0,1,.112-.111Z" fill="#fff"/>
      <path id="Path_24" data-name="Path 24" d="M86.526,105.592a3.93,3.93,0,0,1,2.75.888,3.369,3.369,0,0,1,.859,2.533q-.018,3.484-3.739,3.465l-1.37-.007c-.087,0-.131-.05-.13-.149l.035-6.626a.129.129,0,0,1,.028-.093.147.147,0,0,1,.1-.027q.924,0,1.464.017m-.7.8-.028,5.315a.107.107,0,0,0,.023.078.122.122,0,0,0,.088.024l.354,0a4.328,4.328,0,0,0,1.685-.265,1.814,1.814,0,0,0,.947-.882,4.6,4.6,0,0,0,.031-3.248,1.711,1.711,0,0,0-.877-.85,4.349,4.349,0,0,0-1.57-.292c-.124-.006-.316-.011-.577-.012-.05,0-.075.043-.076.13" fill="#fff"/>
      <path id="Path_25" data-name="Path 25" d="M93.155,105.72c0-.069.038-.1.113-.1l5.017.026c.075,0,.111.034.111.1l0,.483a.082.082,0,0,1-.029.074.154.154,0,0,1-.084.018l-1.894-.01a.129.129,0,0,0-.079.018.1.1,0,0,0-.023.074l-.031,6c0,.08-.038.12-.113.12l-.671,0c-.075,0-.112-.041-.111-.121l.031-5.994a.129.129,0,0,0-.018-.085.108.108,0,0,0-.075-.018l-2.033-.011a.157.157,0,0,1-.084-.019.085.085,0,0,1-.027-.075Z" fill="#fff"/>
      <path id="Path_26" data-name="Path 26" d="M104.6,112.461a.1.1,0,0,1-.112.112l-.681,0a.155.155,0,0,1-.148-.112l-1.189-2.934a.2.2,0,0,0-.073-.084.307.307,0,0,0-.15-.028l-1.576-.009c-.075,0-.112.035-.112.1l-.015,2.9a.163.163,0,0,1-.033.115.18.18,0,0,1-.126.032l-.606,0a.145.145,0,0,1-.1-.028.13.13,0,0,1-.027-.093l.035-6.644a.161.161,0,0,1,.023-.1.113.113,0,0,1,.089-.028l2.6.014a2.812,2.812,0,0,1,1.713.464,1.561,1.561,0,0,1,.6,1.332,1.727,1.727,0,0,1-.4,1.182,2.017,2.017,0,0,1-.969.613.06.06,0,0,0-.046.037.061.061,0,0,0,.009.056l1.289,3.045a.168.168,0,0,1,.009.065m-1.238-3.984a1.079,1.079,0,0,0,.415-.936,1.124,1.124,0,0,0-.358-.913,1.632,1.632,0,0,0-1.072-.313l-1.641-.008c-.087,0-.131.033-.131.1l-.012,2.23c0,.081.027.121.083.121l1.473.008a2.114,2.114,0,0,0,1.242-.291" fill="#fff"/>
      <path id="Path_27" data-name="Path 27" d="M105.663,112.536a.122.122,0,0,1,0-.116l2.45-6.594a.22.22,0,0,1,.066-.1.205.205,0,0,1,.121-.027l.728,0c.118,0,.189.047.213.141l2.353,6.61.008.047c0,.074-.034.111-.1.111l-.662,0a.147.147,0,0,1-.15-.093l-.633-1.807a.226.226,0,0,0-.038-.056.1.1,0,0,0-.074-.019l-2.714-.014a.108.108,0,0,0-.112.074l-.672,1.808a.129.129,0,0,1-.14.083l-.559,0a.1.1,0,0,1-.084-.043m4.042-2.613c.068,0,.094-.04.076-.12l-1.1-3.063c-.018-.056-.04-.084-.064-.084s-.047.027-.066.083l-1.154,3.071-.019.056c0,.031.024.046.074.046Z" fill="#fff"/>
      <path id="Path_28" data-name="Path 28" d="M113.738,105.726c.075,0,.111.041.111.121l-.035,6.616a.167.167,0,0,1-.038.126.208.208,0,0,1-.131.032l-.588,0a.165.165,0,0,1-.112-.029.142.142,0,0,1-.027-.1l.035-6.635c0-.087.038-.13.112-.13Z" fill="#fff"/>
      <path id="Path_29" data-name="Path 29" d="M120.806,105.762a.108.108,0,0,1,.079.024.124.124,0,0,1,.023.088l-.036,6.672q0,.112-.121.111l-.457,0a.341.341,0,0,1-.116-.015.171.171,0,0,1-.079-.06l-3.572-5.232c-.025-.044-.048-.062-.069-.056s-.033.028-.033.065l-.027,5.158c0,.08-.044.12-.131.12l-.522,0a.107.107,0,0,1-.121-.121l.035-6.644a.162.162,0,0,1,.023-.1.126.126,0,0,1,.1-.027l.531,0a.255.255,0,0,1,.111.019.3.3,0,0,1,.084.074l3.47,5.121c.031.037.059.056.084.056s.056-.027.057-.083l.027-5.055a.1.1,0,0,1,.112-.111Z" fill="#fff"/>
      <path id="Path_30" data-name="Path 30" d="M123.5,105.777c.075,0,.111.041.111.121l-.035,6.616a.167.167,0,0,1-.038.126.208.208,0,0,1-.131.032l-.588,0a.165.165,0,0,1-.112-.029.142.142,0,0,1-.027-.1l.035-6.635c0-.087.038-.13.112-.13Z" fill="#fff"/>
      <path id="Path_31" data-name="Path 31" d="M130.57,105.814a.108.108,0,0,1,.079.024.124.124,0,0,1,.023.088l-.035,6.672c0,.074-.041.111-.121.111l-.457,0a.341.341,0,0,1-.116-.015.171.171,0,0,1-.079-.06L126.29,107.4c-.025-.044-.048-.062-.069-.056s-.032.028-.033.065l-.027,5.158c0,.08-.044.12-.131.12l-.522,0a.107.107,0,0,1-.121-.121l.035-6.644a.162.162,0,0,1,.024-.1.126.126,0,0,1,.1-.027l.531,0a.255.255,0,0,1,.111.019.3.3,0,0,1,.084.074l3.47,5.121c.031.037.059.056.084.056s.056-.027.057-.083l.027-5.055a.1.1,0,0,1,.112-.111Z" fill="#fff"/>
      <path id="Path_32" data-name="Path 32" d="M133.5,112.394a2.712,2.712,0,0,1-1-1.218,4.614,4.614,0,0,1-.34-1.879,4.692,4.692,0,0,1,.37-1.913,2.728,2.728,0,0,1,1.027-1.226,2.815,2.815,0,0,1,1.55-.415,2.759,2.759,0,0,1,1.188.267,2.64,2.64,0,0,1,.91.692,1.849,1.849,0,0,1,.429.913v.056a.094.094,0,0,1-.014.056.153.153,0,0,1-.061.037l-.671.1h-.019c-.037,0-.065-.031-.083-.093a1.568,1.568,0,0,0-.564-.956,1.853,1.853,0,0,0-2.6.325,3.633,3.633,0,0,0-.523,2.107,3.747,3.747,0,0,0,.5,2.172,1.716,1.716,0,0,0,1.488.728,1.841,1.841,0,0,0,.98-.246,1.682,1.682,0,0,0,.624-.637,1.948,1.948,0,0,0,.242-.789l0-.557V109.9c0-.056-.031-.084-.093-.084l-1.52-.008c-.068,0-.1-.032-.1-.093l0-.4c0-.056.031-.083.093-.083l2.313.021c.093,0,.14.039.139.113l-.017,3.262c0,.08-.038.12-.112.12h-.215a.253.253,0,0,1-.112-.019.131.131,0,0,1-.055-.093l-.1-.865c-.006-.025-.017-.037-.033-.037s-.032.015-.052.045a2.313,2.313,0,0,1-.8.763,2.408,2.408,0,0,1-1.237.285,2.765,2.765,0,0,1-1.537-.431" fill="#fff"/>
      <path id="Path_33" data-name="Path 33" d="M136.874,36.64,112.08,61.347a5.825,5.825,0,1,1-8.252-8.223L136.263,20.8a5.8,5.8,0,0,0,0-8.223h0a5.85,5.85,0,0,0-8.252,0L89.989,50.469a5.825,5.825,0,0,1-8.252-8.223L114.172,9.926A5.825,5.825,0,0,0,105.92,1.7L81.915,25.624" transform="translate(-150.318 49.043)" fill="#15b7ee"/>
    </g>
  </g>
</svg>
